<mxfile host="Electron" agent="Mozilla/5.0 (Windows NT 10.0; Win64; x64) AppleWebKit/537.36 (KHTML, like Gecko) draw.io/24.7.17 Chrome/128.0.6613.36 Electron/32.0.1 Safari/537.36" version="24.7.17">
  <diagram name="Страница — 1" id="fh61_B3mHnoZjUCTXxUg">
    <mxGraphModel dx="1588" dy="361" grid="1" gridSize="10" guides="1" tooltips="1" connect="1" arrows="1" fold="1" page="1" pageScale="1" pageWidth="827" pageHeight="1169" math="0" shadow="0">
      <root>
        <mxCell id="0" />
        <mxCell id="1" parent="0" />
        <mxCell id="VsqCTWy-dSO4EiB5n4eu-1" value="" style="endArrow=none;html=1;rounded=0;entryX=0.5;entryY=1;entryDx=0;entryDy=0;" parent="1" edge="1">
          <mxGeometry width="50" height="50" relative="1" as="geometry">
            <mxPoint x="375" y="200" as="sourcePoint" />
            <mxPoint x="375" y="80" as="targetPoint" />
          </mxGeometry>
        </mxCell>
        <mxCell id="VsqCTWy-dSO4EiB5n4eu-2" value="" style="endArrow=none;dashed=1;html=1;rounded=0;" parent="1" edge="1">
          <mxGeometry width="50" height="50" relative="1" as="geometry">
            <mxPoint x="380" y="130" as="sourcePoint" />
            <mxPoint x="480" y="130" as="targetPoint" />
          </mxGeometry>
        </mxCell>
        <mxCell id="VsqCTWy-dSO4EiB5n4eu-3" value="" style="endArrow=none;html=1;rounded=0;" parent="1" edge="1">
          <mxGeometry width="50" height="50" relative="1" as="geometry">
            <mxPoint x="640" y="170" as="sourcePoint" />
            <mxPoint x="480" y="170" as="targetPoint" />
          </mxGeometry>
        </mxCell>
        <mxCell id="VsqCTWy-dSO4EiB5n4eu-4" value="" style="endArrow=none;html=1;rounded=0;" parent="1" edge="1">
          <mxGeometry width="50" height="50" relative="1" as="geometry">
            <mxPoint x="640" y="80" as="sourcePoint" />
            <mxPoint x="480" y="80" as="targetPoint" />
          </mxGeometry>
        </mxCell>
        <mxCell id="VsqCTWy-dSO4EiB5n4eu-5" value="" style="endArrow=none;html=1;rounded=0;" parent="1" edge="1">
          <mxGeometry width="50" height="50" relative="1" as="geometry">
            <mxPoint x="480" y="170" as="sourcePoint" />
            <mxPoint x="480" y="80" as="targetPoint" />
          </mxGeometry>
        </mxCell>
        <mxCell id="VsqCTWy-dSO4EiB5n4eu-6" value="&lt;div style=&quot;color: rgb(204, 204, 204); background-color: rgb(31, 31, 31); font-family: Consolas, &amp;quot;Courier New&amp;quot;, monospace; font-size: 14px; line-height: 19px; white-space: pre;&quot;&gt;&lt;div style=&quot;line-height: 19px;&quot;&gt;&lt;div&gt;&lt;span style=&quot;color: #c586c0;&quot;&gt;#include&lt;/span&gt;&lt;span style=&quot;color: #569cd6;&quot;&gt; &lt;/span&gt;&lt;span style=&quot;color: #ce9178;&quot;&gt;&amp;lt;iostream&amp;gt;&lt;/span&gt;&lt;/div&gt;&lt;div&gt;&lt;span style=&quot;color: #c586c0;&quot;&gt;#include&lt;/span&gt;&lt;span style=&quot;color: #569cd6;&quot;&gt; &lt;/span&gt;&lt;span style=&quot;color: #ce9178;&quot;&gt;&amp;lt;cmath&amp;gt;&lt;/span&gt;&lt;/div&gt;&lt;div&gt;&lt;span style=&quot;color: #c586c0;&quot;&gt;using&lt;/span&gt; &lt;span style=&quot;color: #569cd6;&quot;&gt;namespace&lt;/span&gt; &lt;span style=&quot;color: #4ec9b0;&quot;&gt;std&lt;/span&gt;;&lt;/div&gt;&lt;div&gt;&lt;div style=&quot;line-height: 19px;&quot;&gt;&lt;span style=&quot;color: #569cd6;&quot;&gt;int&lt;/span&gt; &lt;span style=&quot;color: #9cdcfe;&quot;&gt;A&lt;/span&gt;, &lt;span style=&quot;color: #9cdcfe;&quot;&gt;B&lt;/span&gt;, &lt;span style=&quot;color: #9cdcfe;&quot;&gt;C&lt;/span&gt; &lt;span style=&quot;color: #d4d4d4;&quot;&gt;=&lt;/span&gt; &lt;span style=&quot;color: #b5cea8;&quot;&gt;0&lt;/span&gt;;&lt;/div&gt;&lt;/div&gt;&lt;/div&gt;&lt;/div&gt;" style="text;html=1;align=center;verticalAlign=middle;whiteSpace=wrap;rounded=0;" parent="1" vertex="1">
          <mxGeometry x="480" y="90" width="170" height="70" as="geometry" />
        </mxCell>
        <mxCell id="VsqCTWy-dSO4EiB5n4eu-12" style="edgeStyle=orthogonalEdgeStyle;rounded=0;orthogonalLoop=1;jettySize=auto;html=1;entryX=0.5;entryY=0;entryDx=0;entryDy=0;" parent="1" source="VsqCTWy-dSO4EiB5n4eu-7" target="VsqCTWy-dSO4EiB5n4eu-9" edge="1">
          <mxGeometry relative="1" as="geometry" />
        </mxCell>
        <mxCell id="VsqCTWy-dSO4EiB5n4eu-7" value="&lt;div style=&quot;color: rgb(204, 204, 204); background-color: rgb(31, 31, 31); font-family: Consolas, &amp;quot;Courier New&amp;quot;, monospace; font-size: 14px; line-height: 19px; white-space: pre;&quot;&gt;&lt;span style=&quot;color: #569cd6;&quot;&gt;int&lt;/span&gt; &lt;span style=&quot;color: #dcdcaa;&quot;&gt;main&lt;/span&gt;()&lt;/div&gt;" style="shape=process;whiteSpace=wrap;html=1;backgroundOutline=1;" parent="1" vertex="1">
          <mxGeometry x="320" y="200" width="110" height="40" as="geometry" />
        </mxCell>
        <mxCell id="VsqCTWy-dSO4EiB5n4eu-8" value="&lt;font style=&quot;font-size: 14px;&quot;&gt;Начало&lt;/font&gt;" style="ellipse;whiteSpace=wrap;html=1;" parent="1" vertex="1">
          <mxGeometry x="320" y="10" width="110" height="70" as="geometry" />
        </mxCell>
        <mxCell id="VsqCTWy-dSO4EiB5n4eu-13" style="edgeStyle=orthogonalEdgeStyle;rounded=0;orthogonalLoop=1;jettySize=auto;html=1;" parent="1" source="VsqCTWy-dSO4EiB5n4eu-9" target="VsqCTWy-dSO4EiB5n4eu-10" edge="1">
          <mxGeometry relative="1" as="geometry" />
        </mxCell>
        <mxCell id="VsqCTWy-dSO4EiB5n4eu-9" value="&lt;div style=&quot;color: rgb(204, 204, 204); background-color: rgb(31, 31, 31); font-family: Consolas, &amp;quot;Courier New&amp;quot;, monospace; font-size: 14px; line-height: 19px; white-space: pre;&quot;&gt;&lt;span style=&quot;color: #9cdcfe;&quot;&gt;cout&lt;/span&gt;&lt;span style=&quot;color: #dcdcaa;&quot;&gt;&amp;lt;&amp;lt;&lt;/span&gt; &lt;span style=&quot;color: #ce9178;&quot;&gt;&quot;Enter A, B and C values for Ax^2 + Bx + C = 0: &quot;&lt;/span&gt;;&lt;/div&gt;" style="shape=parallelogram;perimeter=parallelogramPerimeter;whiteSpace=wrap;html=1;fixedSize=1;" parent="1" vertex="1">
          <mxGeometry x="125" y="270" width="500" height="30" as="geometry" />
        </mxCell>
        <mxCell id="VsqCTWy-dSO4EiB5n4eu-14" style="edgeStyle=orthogonalEdgeStyle;rounded=0;orthogonalLoop=1;jettySize=auto;html=1;" parent="1" source="VsqCTWy-dSO4EiB5n4eu-10" target="VsqCTWy-dSO4EiB5n4eu-11" edge="1">
          <mxGeometry relative="1" as="geometry" />
        </mxCell>
        <mxCell id="VsqCTWy-dSO4EiB5n4eu-10" value="&lt;div style=&quot;color: rgb(204, 204, 204); background-color: rgb(31, 31, 31); font-family: Consolas, &amp;quot;Courier New&amp;quot;, monospace; font-size: 14px; line-height: 19px; white-space: pre;&quot;&gt;&lt;span style=&quot;color: #9cdcfe;&quot;&gt;cin&lt;/span&gt;&lt;span style=&quot;color: #dcdcaa;&quot;&gt;&amp;gt;&amp;gt;&lt;/span&gt; &lt;span style=&quot;color: #9cdcfe;&quot;&gt;A&lt;/span&gt; &lt;span style=&quot;color: #dcdcaa;&quot;&gt;&amp;gt;&amp;gt;&lt;/span&gt; &lt;span style=&quot;color: #9cdcfe;&quot;&gt;B&lt;/span&gt; &lt;span style=&quot;color: #dcdcaa;&quot;&gt;&amp;gt;&amp;gt;&lt;/span&gt; &lt;span style=&quot;color: #9cdcfe;&quot;&gt;C&lt;/span&gt;;&lt;/div&gt;" style="shape=parallelogram;perimeter=parallelogramPerimeter;whiteSpace=wrap;html=1;fixedSize=1;" parent="1" vertex="1">
          <mxGeometry x="285" y="340" width="180" height="30" as="geometry" />
        </mxCell>
        <mxCell id="VsqCTWy-dSO4EiB5n4eu-20" style="edgeStyle=orthogonalEdgeStyle;rounded=0;orthogonalLoop=1;jettySize=auto;html=1;entryX=0.5;entryY=0;entryDx=0;entryDy=0;" parent="1" source="VsqCTWy-dSO4EiB5n4eu-11" target="VsqCTWy-dSO4EiB5n4eu-18" edge="1">
          <mxGeometry relative="1" as="geometry" />
        </mxCell>
        <mxCell id="VsqCTWy-dSO4EiB5n4eu-11" value="&lt;div style=&quot;color: rgb(204, 204, 204); background-color: rgb(31, 31, 31); font-family: Consolas, &amp;quot;Courier New&amp;quot;, monospace; font-size: 14px; line-height: 19px; white-space: pre;&quot;&gt;&lt;span style=&quot;color: #569cd6;&quot;&gt;float&lt;/span&gt; &lt;span style=&quot;color: #9cdcfe;&quot;&gt;D&lt;/span&gt; &lt;span style=&quot;color: #d4d4d4;&quot;&gt;=&lt;/span&gt; &lt;span style=&quot;color: #9cdcfe;&quot;&gt;B&lt;/span&gt;&lt;span style=&quot;color: #d4d4d4;&quot;&gt;*&lt;/span&gt;&lt;span style=&quot;color: #9cdcfe;&quot;&gt;B&lt;/span&gt; &lt;span style=&quot;color: #d4d4d4;&quot;&gt;-&lt;/span&gt; &lt;span style=&quot;color: #b5cea8;&quot;&gt;4&lt;/span&gt;&lt;span style=&quot;color: #d4d4d4;&quot;&gt;*&lt;/span&gt;&lt;span style=&quot;color: #9cdcfe;&quot;&gt;A&lt;/span&gt;&lt;span style=&quot;color: #d4d4d4;&quot;&gt;*&lt;/span&gt;&lt;span style=&quot;color: #9cdcfe;&quot;&gt;C&lt;/span&gt;;&lt;/div&gt;" style="rounded=0;whiteSpace=wrap;html=1;" parent="1" vertex="1">
          <mxGeometry x="285" y="410" width="180" height="30" as="geometry" />
        </mxCell>
        <mxCell id="VsqCTWy-dSO4EiB5n4eu-16" value="{" style="text;html=1;align=center;verticalAlign=middle;whiteSpace=wrap;rounded=0;" parent="1" vertex="1">
          <mxGeometry x="340" y="240" width="30" height="30" as="geometry" />
        </mxCell>
        <mxCell id="VsqCTWy-dSO4EiB5n4eu-24" style="edgeStyle=orthogonalEdgeStyle;rounded=0;orthogonalLoop=1;jettySize=auto;html=1;entryX=0;entryY=0.5;entryDx=0;entryDy=0;" parent="1" source="VsqCTWy-dSO4EiB5n4eu-17" edge="1">
          <mxGeometry relative="1" as="geometry">
            <mxPoint x="465" y="570" as="targetPoint" />
          </mxGeometry>
        </mxCell>
        <mxCell id="VsqCTWy-dSO4EiB5n4eu-28" style="edgeStyle=orthogonalEdgeStyle;rounded=0;orthogonalLoop=1;jettySize=auto;html=1;entryX=0.5;entryY=0;entryDx=0;entryDy=0;" parent="1" source="VsqCTWy-dSO4EiB5n4eu-17" target="VsqCTWy-dSO4EiB5n4eu-27" edge="1">
          <mxGeometry relative="1" as="geometry" />
        </mxCell>
        <mxCell id="VsqCTWy-dSO4EiB5n4eu-17" value="&lt;div style=&quot;color: rgb(204, 204, 204); background-color: rgb(31, 31, 31); font-family: Consolas, &amp;quot;Courier New&amp;quot;, monospace; font-size: 14px; line-height: 19px; white-space: pre;&quot;&gt;&lt;span style=&quot;color: #c586c0;&quot;&gt;case&lt;/span&gt; &lt;span style=&quot;color: #b5cea8;&quot;&gt;0&lt;/span&gt;:&lt;/div&gt;" style="rhombus;whiteSpace=wrap;html=1;" parent="1" vertex="1">
          <mxGeometry x="320" y="540" width="110" height="60" as="geometry" />
        </mxCell>
        <mxCell id="VsqCTWy-dSO4EiB5n4eu-21" style="edgeStyle=orthogonalEdgeStyle;rounded=0;orthogonalLoop=1;jettySize=auto;html=1;entryX=0.5;entryY=0;entryDx=0;entryDy=0;" parent="1" source="VsqCTWy-dSO4EiB5n4eu-18" target="VsqCTWy-dSO4EiB5n4eu-17" edge="1">
          <mxGeometry relative="1" as="geometry" />
        </mxCell>
        <mxCell id="VsqCTWy-dSO4EiB5n4eu-18" value="&lt;div style=&quot;color: rgb(204, 204, 204); background-color: rgb(31, 31, 31); font-family: Consolas, &amp;quot;Courier New&amp;quot;, monospace; font-size: 14px; line-height: 19px; white-space: pre;&quot;&gt;&lt;span style=&quot;color: #c586c0;&quot;&gt;switch&lt;/span&gt; (&lt;span style=&quot;color: #9cdcfe;&quot;&gt;A&lt;/span&gt;)&lt;/div&gt;" style="rounded=0;whiteSpace=wrap;html=1;" parent="1" vertex="1">
          <mxGeometry x="325" y="480" width="100" height="30" as="geometry" />
        </mxCell>
        <mxCell id="VsqCTWy-dSO4EiB5n4eu-19" value="{" style="text;html=1;align=center;verticalAlign=middle;whiteSpace=wrap;rounded=0;" parent="1" vertex="1">
          <mxGeometry x="320" y="510" width="40" height="30" as="geometry" />
        </mxCell>
        <mxCell id="VsqCTWy-dSO4EiB5n4eu-25" style="edgeStyle=orthogonalEdgeStyle;rounded=0;orthogonalLoop=1;jettySize=auto;html=1;entryX=0;entryY=0.5;entryDx=0;entryDy=0;" parent="1" target="VsqCTWy-dSO4EiB5n4eu-23" edge="1">
          <mxGeometry relative="1" as="geometry">
            <mxPoint x="815" y="570" as="sourcePoint" />
          </mxGeometry>
        </mxCell>
        <mxCell id="VsqCTWy-dSO4EiB5n4eu-23" value="&lt;div style=&quot;color: rgb(204, 204, 204); background-color: rgb(31, 31, 31); font-family: Consolas, &amp;quot;Courier New&amp;quot;, monospace; font-size: 14px; line-height: 19px; white-space: pre;&quot;&gt;&lt;span style=&quot;color: #c586c0;&quot;&gt;break&lt;/span&gt;;&lt;/div&gt;" style="rounded=0;whiteSpace=wrap;html=1;" parent="1" vertex="1">
          <mxGeometry x="850" y="555" width="65" height="30" as="geometry" />
        </mxCell>
        <mxCell id="VsqCTWy-dSO4EiB5n4eu-26" value="1" style="text;html=1;align=center;verticalAlign=middle;whiteSpace=wrap;rounded=0;" parent="1" vertex="1">
          <mxGeometry x="425" y="540" width="40" height="20" as="geometry" />
        </mxCell>
        <mxCell id="VsqCTWy-dSO4EiB5n4eu-31" style="edgeStyle=orthogonalEdgeStyle;rounded=0;orthogonalLoop=1;jettySize=auto;html=1;entryX=0.5;entryY=0;entryDx=0;entryDy=0;" parent="1" source="VsqCTWy-dSO4EiB5n4eu-27" target="VsqCTWy-dSO4EiB5n4eu-30" edge="1">
          <mxGeometry relative="1" as="geometry" />
        </mxCell>
        <mxCell id="VsqCTWy-dSO4EiB5n4eu-27" value="&lt;div style=&quot;color: rgb(204, 204, 204); background-color: rgb(31, 31, 31); font-family: Consolas, &amp;quot;Courier New&amp;quot;, monospace; font-size: 14px; line-height: 19px; white-space: pre;&quot;&gt;&lt;span style=&quot;color: #c586c0;&quot;&gt;default&lt;/span&gt;:&lt;/div&gt;" style="rhombus;whiteSpace=wrap;html=1;" parent="1" vertex="1">
          <mxGeometry x="315" y="640" width="120" height="60" as="geometry" />
        </mxCell>
        <mxCell id="VsqCTWy-dSO4EiB5n4eu-29" value="0" style="text;html=1;align=center;verticalAlign=middle;whiteSpace=wrap;rounded=0;" parent="1" vertex="1">
          <mxGeometry x="320" y="610" width="50" height="20" as="geometry" />
        </mxCell>
        <mxCell id="VsqCTWy-dSO4EiB5n4eu-38" style="edgeStyle=orthogonalEdgeStyle;rounded=0;orthogonalLoop=1;jettySize=auto;html=1;" parent="1" source="VsqCTWy-dSO4EiB5n4eu-30" edge="1">
          <mxGeometry relative="1" as="geometry">
            <mxPoint x="830" y="810" as="targetPoint" />
          </mxGeometry>
        </mxCell>
        <mxCell id="VsqCTWy-dSO4EiB5n4eu-42" style="edgeStyle=orthogonalEdgeStyle;rounded=0;orthogonalLoop=1;jettySize=auto;html=1;" parent="1" source="VsqCTWy-dSO4EiB5n4eu-30" edge="1">
          <mxGeometry relative="1" as="geometry">
            <mxPoint x="400" y="810" as="targetPoint" />
          </mxGeometry>
        </mxCell>
        <mxCell id="VsqCTWy-dSO4EiB5n4eu-30" value="&lt;div style=&quot;color: rgb(204, 204, 204); background-color: rgb(31, 31, 31); font-family: Consolas, &amp;quot;Courier New&amp;quot;, monospace; font-size: 14px; line-height: 19px; white-space: pre;&quot;&gt;&lt;span style=&quot;color: #c586c0;&quot;&gt;if&lt;/span&gt; (&lt;span style=&quot;color: #9cdcfe;&quot;&gt;D&lt;/span&gt;&lt;span style=&quot;color: #d4d4d4;&quot;&gt;!=&lt;/span&gt;&lt;span style=&quot;color: #b5cea8;&quot;&gt;0&lt;/span&gt;)&lt;/div&gt;" style="rhombus;whiteSpace=wrap;html=1;" parent="1" vertex="1">
          <mxGeometry x="540" y="700" width="120" height="60" as="geometry" />
        </mxCell>
        <mxCell id="VsqCTWy-dSO4EiB5n4eu-32" value="1" style="text;html=1;align=center;verticalAlign=middle;whiteSpace=wrap;rounded=0;" parent="1" vertex="1">
          <mxGeometry x="435" y="640" width="45" height="20" as="geometry" />
        </mxCell>
        <mxCell id="VsqCTWy-dSO4EiB5n4eu-45" style="edgeStyle=orthogonalEdgeStyle;rounded=0;orthogonalLoop=1;jettySize=auto;html=1;entryX=0.356;entryY=0;entryDx=0;entryDy=0;entryPerimeter=0;" parent="1" source="VsqCTWy-dSO4EiB5n4eu-34" edge="1" target="2UGksQ8gWzurhXTnFysy-3">
          <mxGeometry relative="1" as="geometry">
            <mxPoint x="100" y="920" as="targetPoint" />
            <Array as="points">
              <mxPoint x="100" y="845" />
            </Array>
          </mxGeometry>
        </mxCell>
        <mxCell id="VsqCTWy-dSO4EiB5n4eu-47" style="edgeStyle=orthogonalEdgeStyle;rounded=0;orthogonalLoop=1;jettySize=auto;html=1;" parent="1" source="VsqCTWy-dSO4EiB5n4eu-34" edge="1">
          <mxGeometry relative="1" as="geometry">
            <mxPoint x="580" y="920" as="targetPoint" />
          </mxGeometry>
        </mxCell>
        <mxCell id="VsqCTWy-dSO4EiB5n4eu-34" value="&lt;div style=&quot;color: rgb(204, 204, 204); background-color: rgb(31, 31, 31); font-family: Consolas, &amp;quot;Courier New&amp;quot;, monospace; font-size: 14px; line-height: 19px; white-space: pre;&quot;&gt;&amp;nbsp;&lt;span style=&quot;color: #c586c0;&quot;&gt;if&lt;/span&gt; (&lt;span style=&quot;color: #9cdcfe;&quot;&gt;D&lt;/span&gt;&lt;span style=&quot;color: #d4d4d4;&quot;&gt;&amp;gt;&lt;/span&gt;&lt;span style=&quot;color: #b5cea8;&quot;&gt;0&lt;/span&gt;)&lt;/div&gt;" style="rhombus;whiteSpace=wrap;html=1;" parent="1" vertex="1">
          <mxGeometry x="339" y="815" width="126" height="60" as="geometry" />
        </mxCell>
        <mxCell id="VsqCTWy-dSO4EiB5n4eu-55" style="edgeStyle=orthogonalEdgeStyle;rounded=0;orthogonalLoop=1;jettySize=auto;html=1;" parent="1" edge="1">
          <mxGeometry relative="1" as="geometry">
            <mxPoint x="710" y="1130" as="targetPoint" />
            <Array as="points">
              <mxPoint x="825" y="1080" />
              <mxPoint x="711" y="1080" />
              <mxPoint x="711" y="1130" />
            </Array>
            <mxPoint x="825" y="845" as="sourcePoint" />
          </mxGeometry>
        </mxCell>
        <mxCell id="VsqCTWy-dSO4EiB5n4eu-39" value="1" style="text;html=1;align=center;verticalAlign=middle;whiteSpace=wrap;rounded=0;" parent="1" vertex="1">
          <mxGeometry x="480" y="700" width="40" height="20" as="geometry" />
        </mxCell>
        <mxCell id="VsqCTWy-dSO4EiB5n4eu-40" value="0" style="text;html=1;align=center;verticalAlign=middle;whiteSpace=wrap;rounded=0;" parent="1" vertex="1">
          <mxGeometry x="670" y="700" width="40" height="20" as="geometry" />
        </mxCell>
        <mxCell id="VsqCTWy-dSO4EiB5n4eu-52" style="edgeStyle=orthogonalEdgeStyle;rounded=0;orthogonalLoop=1;jettySize=auto;html=1;" parent="1" edge="1">
          <mxGeometry relative="1" as="geometry">
            <mxPoint x="360" y="1050" as="targetPoint" />
            <Array as="points">
              <mxPoint x="585" y="1040" />
            </Array>
            <mxPoint x="585" y="950" as="sourcePoint" />
          </mxGeometry>
        </mxCell>
        <mxCell id="VsqCTWy-dSO4EiB5n4eu-53" style="edgeStyle=orthogonalEdgeStyle;rounded=0;orthogonalLoop=1;jettySize=auto;html=1;" parent="1" edge="1">
          <mxGeometry relative="1" as="geometry">
            <mxPoint x="710" y="1080" as="targetPoint" />
            <Array as="points">
              <mxPoint x="105" y="1040" />
              <mxPoint x="360" y="1040" />
              <mxPoint x="360" y="1080" />
            </Array>
            <mxPoint x="105" y="970" as="sourcePoint" />
          </mxGeometry>
        </mxCell>
        <mxCell id="VsqCTWy-dSO4EiB5n4eu-46" value="1" style="text;html=1;align=center;verticalAlign=middle;whiteSpace=wrap;rounded=0;" parent="1" vertex="1">
          <mxGeometry x="295" y="810" width="30" height="30" as="geometry" />
        </mxCell>
        <mxCell id="VsqCTWy-dSO4EiB5n4eu-48" value="0" style="text;html=1;align=center;verticalAlign=middle;whiteSpace=wrap;rounded=0;" parent="1" vertex="1">
          <mxGeometry x="465" y="810" width="40" height="20" as="geometry" />
        </mxCell>
        <mxCell id="VsqCTWy-dSO4EiB5n4eu-49" value="{" style="text;html=1;align=center;verticalAlign=middle;whiteSpace=wrap;rounded=0;" parent="1" vertex="1">
          <mxGeometry x="70" y="875" width="30" height="20" as="geometry" />
        </mxCell>
        <mxCell id="VsqCTWy-dSO4EiB5n4eu-54" value="}" style="text;html=1;align=center;verticalAlign=middle;whiteSpace=wrap;rounded=0;" parent="1" vertex="1">
          <mxGeometry x="90" y="1010" width="50" height="20" as="geometry" />
        </mxCell>
        <mxCell id="VsqCTWy-dSO4EiB5n4eu-58" style="edgeStyle=orthogonalEdgeStyle;rounded=0;orthogonalLoop=1;jettySize=auto;html=1;entryX=0.5;entryY=0;entryDx=0;entryDy=0;" parent="1" source="VsqCTWy-dSO4EiB5n4eu-56" target="VsqCTWy-dSO4EiB5n4eu-57" edge="1">
          <mxGeometry relative="1" as="geometry">
            <mxPoint x="715" y="1190" as="targetPoint" />
          </mxGeometry>
        </mxCell>
        <mxCell id="VsqCTWy-dSO4EiB5n4eu-56" value="&lt;div style=&quot;color: rgb(204, 204, 204); background-color: rgb(31, 31, 31); font-family: Consolas, &amp;quot;Courier New&amp;quot;, monospace; font-size: 14px; line-height: 19px; white-space: pre;&quot;&gt;&lt;span style=&quot;color: #c586c0;&quot;&gt;break&lt;/span&gt;;&lt;/div&gt;" style="rounded=0;whiteSpace=wrap;html=1;" parent="1" vertex="1">
          <mxGeometry x="680" y="1130" width="70" height="30" as="geometry" />
        </mxCell>
        <mxCell id="VsqCTWy-dSO4EiB5n4eu-57" value="&lt;div style=&quot;color: rgb(204, 204, 204); background-color: rgb(31, 31, 31); font-family: Consolas, &amp;quot;Courier New&amp;quot;, monospace; font-size: 14px; line-height: 19px; white-space: pre;&quot;&gt;&lt;span style=&quot;color: #c586c0;&quot;&gt;return&lt;/span&gt; &lt;span style=&quot;color: #b5cea8;&quot;&gt;0&lt;/span&gt;;&lt;/div&gt;" style="ellipse;whiteSpace=wrap;html=1;" parent="1" vertex="1">
          <mxGeometry x="665" y="1200" width="100" height="60" as="geometry" />
        </mxCell>
        <mxCell id="VsqCTWy-dSO4EiB5n4eu-61" value="}" style="text;html=1;align=center;verticalAlign=middle;whiteSpace=wrap;rounded=0;" parent="1" vertex="1">
          <mxGeometry x="760" y="1210" width="40" height="25" as="geometry" />
        </mxCell>
        <mxCell id="2UGksQ8gWzurhXTnFysy-1" value="&lt;span style=&quot;font-family: Consolas, &amp;quot;Courier New&amp;quot;, monospace; font-size: 14px; white-space: pre; color: rgb(156, 220, 254);&quot;&gt;cout&lt;/span&gt;&lt;span style=&quot;font-family: Consolas, &amp;quot;Courier New&amp;quot;, monospace; font-size: 14px; white-space: pre; color: rgb(220, 220, 170);&quot;&gt;&amp;lt;&amp;lt;&lt;/span&gt;&lt;span style=&quot;color: rgb(204, 204, 204); font-family: Consolas, &amp;quot;Courier New&amp;quot;, monospace; font-size: 14px; white-space: pre; background-color: rgb(31, 31, 31);&quot;&gt; &lt;/span&gt;&lt;span style=&quot;font-family: Consolas, &amp;quot;Courier New&amp;quot;, monospace; font-size: 14px; white-space: pre; color: rgb(206, 145, 120);&quot;&gt;&quot;This is not a quadratic equation&quot;&lt;/span&gt;&lt;span style=&quot;color: rgb(204, 204, 204); font-family: Consolas, &amp;quot;Courier New&amp;quot;, monospace; font-size: 14px; white-space: pre; background-color: rgb(31, 31, 31);&quot;&gt;;&lt;/span&gt;" style="shape=parallelogram;perimeter=parallelogramPerimeter;whiteSpace=wrap;html=1;fixedSize=1;" vertex="1" parent="1">
          <mxGeometry x="450" y="560" width="370" height="30" as="geometry" />
        </mxCell>
        <mxCell id="2UGksQ8gWzurhXTnFysy-2" value="&lt;span style=&quot;font-family: Consolas, &amp;quot;Courier New&amp;quot;, monospace; font-size: 14px; white-space: pre; color: rgb(156, 220, 254);&quot;&gt;cout&lt;/span&gt;&lt;span style=&quot;font-family: Consolas, &amp;quot;Courier New&amp;quot;, monospace; font-size: 14px; white-space: pre; color: rgb(220, 220, 170);&quot;&gt;&amp;lt;&amp;lt;&lt;/span&gt;&lt;span style=&quot;color: rgb(204, 204, 204); font-family: Consolas, &amp;quot;Courier New&amp;quot;, monospace; font-size: 14px; white-space: pre; background-color: rgb(31, 31, 31);&quot;&gt; &lt;/span&gt;&lt;span style=&quot;font-family: Consolas, &amp;quot;Courier New&amp;quot;, monospace; font-size: 14px; white-space: pre; color: rgb(206, 145, 120);&quot;&gt;&quot;x = &quot;&lt;/span&gt;&lt;span style=&quot;color: rgb(204, 204, 204); font-family: Consolas, &amp;quot;Courier New&amp;quot;, monospace; font-size: 14px; white-space: pre; background-color: rgb(31, 31, 31);&quot;&gt; &lt;/span&gt;&lt;span style=&quot;font-family: Consolas, &amp;quot;Courier New&amp;quot;, monospace; font-size: 14px; white-space: pre; color: rgb(220, 220, 170);&quot;&gt;&amp;lt;&amp;lt;&lt;/span&gt;&lt;span style=&quot;color: rgb(204, 204, 204); font-family: Consolas, &amp;quot;Courier New&amp;quot;, monospace; font-size: 14px; white-space: pre; background-color: rgb(31, 31, 31);&quot;&gt; (&lt;/span&gt;&lt;span style=&quot;font-family: Consolas, &amp;quot;Courier New&amp;quot;, monospace; font-size: 14px; white-space: pre; color: rgb(212, 212, 212);&quot;&gt;-&lt;/span&gt;&lt;span style=&quot;font-family: Consolas, &amp;quot;Courier New&amp;quot;, monospace; font-size: 14px; white-space: pre; color: rgb(156, 220, 254);&quot;&gt;B&lt;/span&gt;&lt;span style=&quot;color: rgb(204, 204, 204); font-family: Consolas, &amp;quot;Courier New&amp;quot;, monospace; font-size: 14px; white-space: pre; background-color: rgb(31, 31, 31);&quot;&gt;)&lt;/span&gt;&lt;span style=&quot;font-family: Consolas, &amp;quot;Courier New&amp;quot;, monospace; font-size: 14px; white-space: pre; color: rgb(212, 212, 212);&quot;&gt;/&lt;/span&gt;&lt;span style=&quot;color: rgb(204, 204, 204); font-family: Consolas, &amp;quot;Courier New&amp;quot;, monospace; font-size: 14px; white-space: pre; background-color: rgb(31, 31, 31);&quot;&gt;(&lt;/span&gt;&lt;span style=&quot;font-family: Consolas, &amp;quot;Courier New&amp;quot;, monospace; font-size: 14px; white-space: pre; color: rgb(181, 206, 168);&quot;&gt;2&lt;/span&gt;&lt;span style=&quot;font-family: Consolas, &amp;quot;Courier New&amp;quot;, monospace; font-size: 14px; white-space: pre; color: rgb(212, 212, 212);&quot;&gt;*&lt;/span&gt;&lt;span style=&quot;font-family: Consolas, &amp;quot;Courier New&amp;quot;, monospace; font-size: 14px; white-space: pre; color: rgb(156, 220, 254);&quot;&gt;A&lt;/span&gt;&lt;span style=&quot;color: rgb(204, 204, 204); font-family: Consolas, &amp;quot;Courier New&amp;quot;, monospace; font-size: 14px; white-space: pre; background-color: rgb(31, 31, 31);&quot;&gt;);&lt;/span&gt;" style="shape=parallelogram;perimeter=parallelogramPerimeter;whiteSpace=wrap;html=1;fixedSize=1;" vertex="1" parent="1">
          <mxGeometry x="665" y="810" width="270" height="30" as="geometry" />
        </mxCell>
        <mxCell id="2UGksQ8gWzurhXTnFysy-3" value="&lt;div style=&quot;color: rgb(204, 204, 204); font-family: Consolas, &amp;quot;Courier New&amp;quot;, monospace; font-size: 14px; white-space: pre;&quot;&gt;&lt;span style=&quot;color: rgb(156, 220, 254);&quot;&gt;cout&lt;/span&gt;&lt;span style=&quot;color: rgb(220, 220, 170);&quot;&gt;&amp;lt;&amp;lt;&lt;/span&gt; &lt;span style=&quot;color: rgb(206, 145, 120);&quot;&gt;&quot;x1 = &quot;&lt;/span&gt; &lt;span style=&quot;color: rgb(220, 220, 170);&quot;&gt;&amp;lt;&amp;lt;&lt;/span&gt; &amp;nbsp;(&lt;span style=&quot;color: rgb(212, 212, 212);&quot;&gt;-&lt;/span&gt;&lt;span style=&quot;color: rgb(156, 220, 254);&quot;&gt;B&lt;/span&gt; &lt;span style=&quot;color: rgb(212, 212, 212);&quot;&gt;+&lt;/span&gt; &lt;span style=&quot;color: rgb(220, 220, 170);&quot;&gt;pow&lt;/span&gt;(&lt;span style=&quot;color: rgb(156, 220, 254);&quot;&gt;D&lt;/span&gt;, &lt;span style=&quot;color: rgb(181, 206, 168);&quot;&gt;0.5&lt;/span&gt;))&lt;span style=&quot;color: rgb(212, 212, 212);&quot;&gt;/&lt;/span&gt;(&lt;span style=&quot;color: rgb(181, 206, 168);&quot;&gt;2&lt;/span&gt;&lt;span style=&quot;color: rgb(212, 212, 212);&quot;&gt;*&lt;/span&gt;&lt;span style=&quot;color: rgb(156, 220, 254);&quot;&gt;A&lt;/span&gt;) &lt;span style=&quot;color: rgb(220, 220, 170);&quot;&gt;&amp;lt;&amp;lt;&lt;/span&gt; &lt;span style=&quot;color: rgb(220, 220, 170);&quot;&gt;endl&lt;/span&gt;;&lt;/div&gt;&lt;div style=&quot;color: rgb(204, 204, 204); font-family: Consolas, &amp;quot;Courier New&amp;quot;, monospace; font-size: 14px; white-space: pre;&quot;&gt;&lt;span style=&quot;color: rgb(156, 220, 254);&quot;&gt;cout&lt;/span&gt;&lt;span style=&quot;color: rgb(220, 220, 170);&quot;&gt;&amp;lt;&amp;lt;&lt;/span&gt; &lt;span style=&quot;color: rgb(206, 145, 120);&quot;&gt;&quot;x2 = &quot;&lt;/span&gt; &lt;span style=&quot;color: rgb(220, 220, 170);&quot;&gt;&amp;lt;&amp;lt;&lt;/span&gt; (&lt;span style=&quot;color: rgb(212, 212, 212);&quot;&gt;-&lt;/span&gt;&lt;span style=&quot;color: rgb(156, 220, 254);&quot;&gt;B&lt;/span&gt; &lt;span style=&quot;color: rgb(212, 212, 212);&quot;&gt;-&lt;/span&gt; &lt;span style=&quot;color: rgb(220, 220, 170);&quot;&gt;pow&lt;/span&gt;(&lt;span style=&quot;color: rgb(156, 220, 254);&quot;&gt;D&lt;/span&gt;, &lt;span style=&quot;color: rgb(181, 206, 168);&quot;&gt;0.5&lt;/span&gt;))&lt;span style=&quot;color: rgb(212, 212, 212);&quot;&gt;/&lt;/span&gt;(&lt;span style=&quot;color: rgb(181, 206, 168);&quot;&gt;2&lt;/span&gt;&lt;span style=&quot;color: rgb(212, 212, 212);&quot;&gt;*&lt;/span&gt;&lt;span style=&quot;color: rgb(156, 220, 254);&quot;&gt;A&lt;/span&gt;) &lt;span style=&quot;color: rgb(220, 220, 170);&quot;&gt;&amp;lt;&amp;lt;&lt;/span&gt; &lt;span style=&quot;color: rgb(220, 220, 170);&quot;&gt;endl&lt;/span&gt;;&lt;/div&gt;" style="shape=parallelogram;perimeter=parallelogramPerimeter;whiteSpace=wrap;html=1;fixedSize=1;" vertex="1" parent="1">
          <mxGeometry x="-60" y="930" width="450" height="40" as="geometry" />
        </mxCell>
        <mxCell id="2UGksQ8gWzurhXTnFysy-4" value="&lt;span style=&quot;font-family: Consolas, &amp;quot;Courier New&amp;quot;, monospace; font-size: 14px; white-space: pre; color: rgb(156, 220, 254);&quot;&gt;cout&lt;/span&gt;&lt;span style=&quot;font-family: Consolas, &amp;quot;Courier New&amp;quot;, monospace; font-size: 14px; white-space: pre; color: rgb(220, 220, 170);&quot;&gt;&amp;lt;&amp;lt;&lt;/span&gt;&lt;span style=&quot;color: rgb(204, 204, 204); font-family: Consolas, &amp;quot;Courier New&amp;quot;, monospace; font-size: 14px; white-space: pre; background-color: rgb(31, 31, 31);&quot;&gt; &lt;/span&gt;&lt;span style=&quot;font-family: Consolas, &amp;quot;Courier New&amp;quot;, monospace; font-size: 14px; white-space: pre; color: rgb(206, 145, 120);&quot;&gt;&quot;There aren&#39;t roots&quot;&lt;/span&gt;&lt;span style=&quot;color: rgb(204, 204, 204); font-family: Consolas, &amp;quot;Courier New&amp;quot;, monospace; font-size: 14px; white-space: pre; background-color: rgb(31, 31, 31);&quot;&gt;;&lt;/span&gt;" style="shape=parallelogram;perimeter=parallelogramPerimeter;whiteSpace=wrap;html=1;fixedSize=1;" vertex="1" parent="1">
          <mxGeometry x="435" y="920" width="260" height="30" as="geometry" />
        </mxCell>
      </root>
    </mxGraphModel>
  </diagram>
</mxfile>
